<?xml version="1.0" encoding="UTF-8"?>
<svg version="1.1" xmlns="http://www.w3.org/2000/svg" width="800" height="800">
<path d="M0 0 C264 0 528 0 800 0 C800 264 800 528 800 800 C536 800 272 800 0 800 C0 536 0 272 0 0 Z " fill="#0F4C81" transform="translate(0,0)"/>
<path d="M0 0 C1.06476563 0.36351562 2.12953125 0.72703125 3.2265625 1.1015625 C16.43862289 5.89750948 26.14985121 12.16400372 36 22 C37.00546875 22.98806641 37.00546875 22.98806641 38.03125 23.99609375 C53.10715226 39.92858137 57.63024087 60.83071349 57.26953125 82.0859375 C56.49406601 101.69794993 46.25011025 121.83901854 32.09765625 135.25 C12.37661963 151.70255942 -9.62029054 157.79626615 -34.96875 155.76171875 C-47.13659773 153.69901854 -59.10092729 148.22447853 -69 141 C-70.27617188 140.09121094 -70.27617188 140.09121094 -71.578125 139.1640625 C-87.50077488 127.19765385 -98.89258624 107.90924546 -101.75 88.0859375 C-103.72106549 63.75559785 -98.34043502 42.88795719 -82.546875 23.89453125 C-62.70950299 1.34929711 -29.07085159 -10.1788696 0 0 Z " fill="#FCFDFD" transform="translate(729,275)"/>
<path d="M0 0 C1.06476563 0.36351562 2.12953125 0.72703125 3.2265625 1.1015625 C16.43862289 5.89750948 26.14985121 12.16400372 36 22 C37.00546875 22.98806641 37.00546875 22.98806641 38.03125 23.99609375 C53.10715226 39.92858137 57.63024087 60.83071349 57.26953125 82.0859375 C56.49406601 101.69794993 46.25011025 121.83901854 32.09765625 135.25 C12.37661963 151.70255942 -9.62029054 157.79626615 -34.96875 155.76171875 C-47.13659773 153.69901854 -59.10092729 148.22447853 -69 141 C-70.27617188 140.09121094 -70.27617188 140.09121094 -71.578125 139.1640625 C-87.50077488 127.19765385 -98.89258624 107.90924546 -101.75 88.0859375 C-103.72106549 63.75559785 -98.34043502 42.88795719 -82.546875 23.89453125 C-62.70950299 1.34929711 -29.07085159 -10.1788696 0 0 Z M-77.4921875 27.8125 C-91.06970077 45.00154037 -95.80132085 63.4449173 -94 85 C-91.45484427 105.20862625 -80.85764377 121.4009645 -65.125 133.875 C-48.67292047 145.66316102 -29.68273024 149.16113511 -9.80664062 146.73193359 C8.39816531 143.69922912 24.60646433 133.44456865 35.8984375 118.98046875 C47.35368054 102.73446422 52.36613432 83.64436929 49.71582031 63.88085938 C45.97676923 42.80985302 33.9362302 26.13370373 16.6875 13.75 C-13.72385199 -5.5443727 -53.95575919 1.2510135 -77.4921875 27.8125 Z " fill="#F5F8FA" transform="translate(729,275)"/>
<path d="M0 0 C7.46625 -0.061875 14.9325 -0.12375 22.625 -0.1875 C24.97189941 -0.21481201 27.31879883 -0.24212402 29.73681641 -0.27026367 C31.60839321 -0.27903002 33.47997575 -0.28667361 35.3515625 -0.29296875 C36.31408936 -0.30831665 37.27661621 -0.32366455 38.26831055 -0.33947754 C43.61072515 -0.34155307 47.40291766 -0.04465026 52 3 C55.93659219 7.36216972 57.31165072 9.96190546 57.21484375 15.91015625 C56.62151436 21.68163303 53.10094325 25.23156566 49 29 C49.928125 29.556875 50.85625 30.11375 51.8125 30.6875 C55.13137905 33.09531421 56.52016173 34.2181911 58 38 C58.7194304 43.96527706 58.50196737 48.92818519 55 54 C50.75048291 57.92263116 47.15943671 60.25911778 41.32324219 60.22705078 C40.3897998 60.22680908 39.45635742 60.22656738 38.49462891 60.22631836 C37.52187012 60.21608643 36.54911133 60.20585449 35.546875 60.1953125 C34.64662598 60.19329834 33.74637695 60.19128418 32.81884766 60.18920898 C29.46251312 60.17876103 26.10625134 60.15083842 22.75 60.125 C11.48875 60.063125 11.48875 60.063125 0 60 C0 40.2 0 20.4 0 0 Z " fill="#FDFDFE" transform="translate(340,319)"/>
<path d="M0 0 C6.620625 -0.04125 13.24125 -0.0825 20.0625 -0.125 C22.13926025 -0.14320801 24.21602051 -0.16141602 26.35571289 -0.18017578 C28.01969139 -0.18602234 29.68367277 -0.19111751 31.34765625 -0.1953125 C32.19710815 -0.20554443 33.04656006 -0.21577637 33.92175293 -0.22631836 C41.75115157 -0.22859402 47.61484026 0.90290757 53.48828125 6.3671875 C56.81359465 9.95886967 57.88392539 12.98849267 58.4375 17.8125 C58.17679643 23.98643458 55.76606194 29.27598716 51.375 33.5625 C49 35 49 35 47 35 C47.53109375 36.0621875 48.0621875 37.124375 48.609375 38.21875 C52.859375 46.71875 52.859375 46.71875 53.91992188 48.84765625 C54.65775139 50.31797836 55.40425624 51.78397078 56.15820312 53.24609375 C59 58.78935185 59 58.78935185 59 61 C51.74 61 44.48 61 37 61 C36.03900391 58.74349609 36.03900391 58.74349609 35.05859375 56.44140625 C34.1863205 54.48113627 33.31254396 52.52153473 32.4375 50.5625 C32.01919922 49.56927734 31.60089844 48.57605469 31.16992188 47.55273438 C30.74130859 46.60849609 30.31269531 45.66425781 29.87109375 44.69140625 C29.48880615 43.81685791 29.10651855 42.94230957 28.71264648 42.04125977 C26.68214323 39.15997448 26.68214323 39.15997448 20 39 C20 46.26 20 53.52 20 61 C13.4 61 6.8 61 0 61 C0 40.87 0 20.74 0 0 Z " fill="#F9FBFC" transform="translate(72,318)"/>
<path d="M0 0 C18 0 18 0 22.875 4.625 C23.87853576 6.16428792 24.88040941 7.70514945 25.84277344 9.27050781 C28.07274612 12.60323492 30.83590884 15.51218306 33.5 18.5 C38.8499349 24.54980469 38.8499349 24.54980469 40 28 C40.66 28 41.32 28 42 28 C42 18.76 42 9.52 42 0 C48.27 0 54.54 0 61 0 C61 20.13 61 40.26 61 61 C43 61 43 61 37.9375 56.6875 C36.58726648 54.81835321 35.27549444 52.92092536 34 51 C32.45452054 49.09026612 30.89192459 47.19425669 29.3125 45.3125 C28.62800781 44.46300781 27.94351562 43.61351562 27.23828125 42.73828125 C24.54738926 39.44628249 21.76706172 36.22823868 19 33 C18.67 42.24 18.34 51.48 18 61 C12.06 61 6.12 61 0 61 C0 40.87 0 20.74 0 0 Z " fill="#F8FAFB" transform="translate(475,318)"/>
<path d="M0 0 C6.6 0 13.2 0 20 0 C20.33 7.92 20.66 15.84 21 24 C31.61366807 12.49547079 31.61366807 12.49547079 41 0 C43.43017578 -0.34057617 43.43017578 -0.34057617 46.4453125 -0.29296875 C47.52167969 -0.28330078 48.59804688 -0.27363281 49.70703125 -0.26367188 C51.39892578 -0.2259668 51.39892578 -0.2259668 53.125 -0.1875 C54.26066406 -0.17396484 55.39632812 -0.16042969 56.56640625 -0.14648438 C59.37807387 -0.11104319 62.18880417 -0.06163517 65 0 C63.38182825 3.40829937 61.52234036 5.79530758 58.9375 8.5625 C54.06400342 13.8711302 49.51576133 19.38465612 45 25 C49.13013741 33.06101381 53.87050433 40.66379923 58.77246094 48.27270508 C61.43529944 52.4264424 63.905651 56.53061605 66 61 C58.46226291 62.04141029 50.40962245 63.14727291 43 61 C38.2020697 57.19478488 36.00005203 51.49486496 33.81445312 45.92382812 C32.85636935 43.66072856 31.61183321 41.85062332 30 40 C26.44102031 41.91250222 23.59540324 43.88061913 21 47 C19.89175019 51.83935749 19.95218932 55.97987829 20 61 C13.4 61 6.8 61 0 61 C0 40.87 0 20.74 0 0 Z " fill="#F9FAFC" transform="translate(548,318)"/>
<path d="M0 0 C6.6 0 13.2 0 20 0 C20.03738281 2.82949219 20.07476562 5.65898437 20.11328125 8.57421875 C20.15952189 11.32128533 20.21074631 14.06821702 20.26245117 16.81518555 C20.29565962 18.72102631 20.32370425 20.62696446 20.34643555 22.53295898 C20.38005668 25.27630015 20.43237595 28.01875222 20.48828125 30.76171875 C20.49467117 31.61086349 20.5010611 32.46000824 20.50764465 33.33488464 C20.63458637 38.46825764 21.1895192 42.1895192 25 46 C27.19190803 46.3164318 27.19190803 46.3164318 29.75 46.375 C30.61109375 46.42398438 31.4721875 46.47296875 32.359375 46.5234375 C36.2816003 45.74595497 37.557599 44.13965698 40 41 C40.73571678 37.84868216 40.72159528 34.76866751 40.70703125 31.54296875 C40.72215256 30.64000565 40.73727386 29.73704254 40.75285339 28.80671692 C40.79571149 25.93339021 40.80456649 23.06111442 40.8125 20.1875 C40.8356458 18.23499814 40.86101131 16.28252124 40.88867188 14.33007812 C40.95567133 9.55281415 40.97664896 4.77847272 41 0 C47.6 0 54.2 0 61 0 C61.06917243 5.67470101 61.12881478 11.34791714 61.16479492 17.02270508 C61.17980652 18.94983906 61.20022216 20.87693932 61.22631836 22.80395508 C61.26303943 25.58683639 61.27980292 28.36926288 61.29296875 31.15234375 C61.30845261 32.00271713 61.32393646 32.85309052 61.33988953 33.72923279 C61.34219049 42.05775295 59.52068268 49.28949068 53.74609375 55.49609375 C44.99539401 63.03304991 34.14238183 62.60993905 23.24316406 62.17919922 C15.60342085 61.56888451 8.97703093 57.73589801 4 52 C0.18651772 45.68807922 -0.55807714 39.96703258 -0.390625 32.71484375 C-0.38496521 31.77314835 -0.37930542 30.83145294 -0.37347412 29.86122131 C-0.35128111 26.88610592 -0.30111825 23.91224452 -0.25 20.9375 C-0.22991288 18.90691857 -0.21166601 16.87631806 -0.1953125 14.84570312 C-0.15489252 9.89627669 -0.07657191 4.94952338 0 0 Z " fill="#F8F9FB" transform="translate(139,318)"/>
<path d="M0 0 C7.59 0 15.18 0 23 0 C27.78870591 12.20528424 32.43487896 24.4513106 36.93676758 36.76513672 C37.95741538 39.55442598 38.98351554 42.34167402 40.00976562 45.12890625 C40.66178551 46.90873434 41.31349082 48.68867772 41.96484375 50.46875 C42.27099106 51.2987854 42.57713837 52.1288208 42.89256287 52.98400879 C45 58.77094946 45 58.77094946 45 61 C38.07 61 31.14 61 24 61 C22 56 22 56 22 53 C14.74 53 7.48 53 0 53 C-0.33 54.98 -0.66 56.96 -1 59 C-1.33 59.66 -1.66 60.32 -2 61 C-8.6 61 -15.2 61 -22 61 C-19.87804772 53.674033 -17.45056004 46.52689002 -14.8046875 39.375 C-14.41177521 38.30628662 -14.01886292 37.23757324 -13.61404419 36.13647461 C-12.79015791 33.89727063 -11.96485158 31.65858868 -11.13818359 29.42041016 C-9.86882605 25.98328237 -8.60397795 22.54452063 -7.33984375 19.10546875 C-6.53671864 16.9243833 -5.73334228 14.74339034 -4.9296875 12.5625 C-4.55053192 11.53237793 -4.17137634 10.50225586 -3.7807312 9.44091797 C-3.43011627 8.4923291 -3.07950134 7.54374023 -2.71826172 6.56640625 C-2.25551346 5.31259155 -2.25551346 5.31259155 -1.78341675 4.03344727 C-1 2 -1 2 0 0 Z " fill="#F9FAFC" transform="translate(423,318)"/>
<path d="M0 0 C6.11303455 4.94864702 6.58035433 6.76783461 7.625 15.125 C1.355 15.125 -4.915 15.125 -11.375 15.125 C-11.705 13.475 -12.035 11.825 -12.375 10.125 C-16.335 10.125 -20.295 10.125 -24.375 10.125 C-24.705 11.775 -25.035 13.425 -25.375 15.125 C-23.83392578 15.48851562 -23.83392578 15.48851562 -22.26171875 15.859375 C1.96079634 21.66222798 1.96079634 21.66222798 7.4375 28.71875 C10.08885499 34.09123248 9.61501035 39.91528225 7.8828125 45.53125 C5.57633044 50.63982183 2.71857568 53.83740364 -2.54296875 56.02734375 C-13.54043543 59.63770724 -26.51275466 59.89030631 -37.203125 55.2578125 C-42.48459012 52.50309148 -45.31016225 49.77613488 -47.375 44.125 C-47.375 41.485 -47.375 38.845 -47.375 36.125 C-41.435 36.125 -35.495 36.125 -29.375 36.125 C-28.715 37.775 -28.055 39.425 -27.375 41.125 C-25.5121051 43.42560534 -25.5121051 43.42560534 -22.5546875 43.3203125 C-20.91886719 43.28550781 -20.91886719 43.28550781 -19.25 43.25 C-17.60644531 43.22292969 -17.60644531 43.22292969 -15.9296875 43.1953125 C-15.08664063 43.17210937 -14.24359375 43.14890625 -13.375 43.125 C-13.045 41.475 -12.715 39.825 -12.375 38.125 C-15.9802353 36.50690227 -19.53750952 35.61586535 -23.40380859 34.83227539 C-31.89950457 33.08327137 -39.66242024 31.14639244 -45.0703125 23.83203125 C-47.67385349 18.43007344 -47.5628192 11.54447952 -45.6015625 5.8984375 C-42.02585127 0.14179602 -35.3366522 -2.8670434 -28.94921875 -4.4921875 C-18.65691412 -6.02275784 -9.12590664 -5.06994813 0 0 Z " fill="#F9FBFC" transform="translate(257.375,321.875)"/>
<path d="M0 0 C19.8 0 39.6 0 60 0 C60 5.28 60 10.56 60 16 C53.4 16 46.8 16 40 16 C40 30.85 40 45.7 40 61 C33.4 61 26.8 61 20 61 C20 46.15 20 31.3 20 16 C13.4 16 6.8 16 0 16 C0 10.72 0 5.44 0 0 Z " fill="#F7F9FB" transform="translate(4,318)"/>
<path d="M0 0 C19.47 0 38.94 0 59 0 C59 5.28 59 10.56 59 16 C52.4 16 45.8 16 39 16 C39 30.85 39 45.7 39 61 C32.73 61 26.46 61 20 61 C20 46.15 20 31.3 20 16 C13.4 16 6.8 16 0 16 C0 10.72 0 5.44 0 0 Z " fill="#FBFCFD" transform="translate(272,318)"/>
<path d="M0 0 C8.60894015 6.86577126 14.63819486 13.57008131 20.1875 23.125 C20.65285156 23.90617187 21.11820313 24.68734375 21.59765625 25.4921875 C30.27325269 41.25152782 31.40248299 59.60601102 27.16015625 76.8515625 C24.28662036 86.52233791 19.99568572 94.89127397 14.1875 103.125 C13.75050781 103.74890625 13.31351563 104.3728125 12.86328125 105.015625 C2.93515369 117.77610127 -13.5943996 126.57195467 -29.23046875 129.6953125 C-50.32689047 132.22596287 -69.42139807 128.81718452 -86.8125 116.125 C-102.29704348 103.76957675 -112.0926804 87.89417852 -114.8125 68.125 C-116.62787909 47.19154083 -112.20334988 28.36419041 -99.125 11.75 C-74.10902375 -16.35483917 -30.8184439 -23.65669033 0 0 Z M-89.8125 8.125 C-90.45058594 8.67929687 -91.08867188 9.23359375 -91.74609375 9.8046875 C-104.09644901 21.30234562 -110.33319416 37.28164044 -111.21875 53.8515625 C-111.68425317 71.70083984 -108.60840496 85.62266684 -97.8125 100.125 C-97.37679687 100.74246094 -96.94109375 101.35992187 -96.4921875 101.99609375 C-87.172721 114.07791709 -71.53454308 122.94189031 -56.8125 126.125 C-52.67702741 126.5253835 -48.58954801 126.54568268 -44.4375 126.5 C-43.39078125 126.51160156 -42.3440625 126.52320313 -41.265625 126.53515625 C-22.29867451 126.46490829 -7.15752363 118.67188126 6.51953125 105.95703125 C19.89078867 92.3579841 25.48493913 73.92253378 25.50219727 55.24731445 C25.17581161 36.14120059 16.42284178 21.22528727 3.1875 8.125 C2.20136719 7.10599609 2.20136719 7.10599609 1.1953125 6.06640625 C-12.20866765 -6.8485875 -30.72788144 -10.4148261 -48.6171875 -10.15234375 C-64.78896027 -9.55722725 -77.856552 -2.33389104 -89.8125 8.125 Z " fill="#1E5788" transform="translate(749.8125,291.875)"/>
<path d="M0 0 C4.09000181 3.14615524 6.48062984 6.82637076 7.4375 11.875 C8.07054383 20.28717862 7.87214072 28.40996706 2.5625 35.3125 C-2.78181019 39.24213984 -8.08593822 39.65421134 -14.5625 38.875 C-18.24839167 37.83485254 -20.54491343 36.19454104 -22.87890625 33.16796875 C-25.58976697 28.2279682 -25.93460635 23.23643715 -26 17.6875 C-26.01023193 17.01041992 -26.02046387 16.33333984 -26.03100586 15.63574219 C-25.92395443 9.53006767 -24.02056383 5.64002464 -20.1875 1 C-14.69690148 -3.27659684 -6.20029344 -1.9579874 0 0 Z " fill="#155084" transform="translate(753.5625,332.125)"/>
<path d="M0 0 C3.69549224 1.23406637 5.54438795 3.39251727 7.875 6.5 C9 9 9 9 9 13 C5.62215784 13.28518367 2.36582651 13.46444035 -1 13 C-2.8125 10.5 -2.8125 10.5 -4 8 C-6.54290625 7.41649495 -6.54290625 7.41649495 -9 8 C-11.5654594 10.5654594 -11.54046087 12.47686668 -12 16 C-11.319375 15.67 -10.63875 15.34 -9.9375 15 C-5.60963178 13.52668316 -2.05002905 13.01700924 2.19140625 15.05078125 C7.69383825 18.38767651 7.69383825 18.38767651 9 21 C9.5368831 25.89355743 9.48281063 29.89355898 7.5 34.4375 C3.17284969 38.87282907 -1.51336232 40.12764873 -7.625 40.375 C-12.98239171 40.16291737 -16.48680098 38.55523233 -20.25 34.6875 C-24.69991126 27.85370771 -25.05597337 20.35411499 -23.5 12.46484375 C-22.03344489 7.47355675 -20.10528928 4.36844249 -16 1 C-11.35158356 -1.32420822 -5.05897407 -0.41438695 0 0 Z " fill="#185386" transform="translate(714,331)"/>
<path d="M0 0 C3.625 1.3125 3.625 1.3125 6 3 C6.61875 3.391875 7.2375 3.78375 7.875 4.1875 C9.78607473 7.26645373 9.63793174 10.54845353 9 14 C7 17 7 17 5 19 C6.2375 19.99 6.2375 19.99 7.5 21 C10.13671969 24.16406363 10.76448793 25.88780233 10.484375 30.00390625 C9.60738456 33.61795555 7.69177343 35.54229382 5 38 C-0.2282662 40.73861563 -6.22990794 40.5589508 -12 40 C-16.16767678 38.48448117 -19.33551045 36.58681286 -22 33 C-22.25 29.75 -22.25 29.75 -22 27 C-18.7 27 -15.4 27 -12 27 C-11.34 28.32 -10.68 29.64 -10 31 C-5.85906302 31.20970559 -5.85906302 31.20970559 -2 30 C-2 28.02 -2 26.04 -2 24 C-4.31 23.67 -6.62 23.34 -9 23 C-9 20.69 -9 18.38 -9 16 C-7.02 15.34 -5.04 14.68 -3 14 C-2.957279 12.33388095 -2.95936168 10.66617115 -3 9 C-4.04862094 7.74843946 -4.04862094 7.74843946 -6.375 7.6875 C-7.24125 7.790625 -8.1075 7.89375 -9 8 C-9.4125 8.66 -9.825 9.32 -10.25 10 C-12 12 -12 12 -14.18359375 12.265625 C-16.46706597 12.25137556 -18.72323958 12.17183098 -21 12 C-20.63166144 5.61546499 -20.63166144 5.61546499 -17.5625 2.625 C-11.9562842 -0.93016124 -6.52578965 -0.45251826 0 0 Z " fill="#185285" transform="translate(675,331)"/>
<path d="M0 0 C2.31 0 4.62 0 7 0 C7.99 2.31 8.98 4.62 10 7 C10.66 4.69 11.32 2.38 12 0 C14.31 0 16.62 0 19 0 C19 5.28 19 10.56 19 16 C17.35 16 15.7 16 14 16 C13.67 14.35 13.34 12.7 13 11 C12.67 12.65 12.34 14.3 12 16 C10.35 16 8.7 16 7 16 C6.67 14.68 6.34 13.36 6 12 C5.67 13.32 5.34 14.64 5 16 C3.35 16 1.7 16 0 16 C0 10.72 0 5.44 0 0 Z " fill="#E9EFF3" transform="translate(349,394)"/>
<path d="M0 0 C2.9375 0.9375 2.9375 0.9375 4.1015625 2.53125 C5.25992113 5.86559072 5.2395235 8.85140234 5.25 12.375 C5.26675781 13.67308594 5.28351562 14.97117187 5.30078125 16.30859375 C4.92319789 20.0803673 4.28013089 21.99104062 1.9375 24.9375 C-0.5625 25.4375 -0.5625 25.4375 -3.0625 24.9375 C-5.11169251 23.3550646 -5.96101414 22.47007738 -6.45068359 19.90039062 C-6.45406738 19.13919922 -6.45745117 18.37800781 -6.4609375 17.59375 C-6.46480469 16.75972656 -6.46867188 15.92570312 -6.47265625 15.06640625 C-6.45525391 13.76509766 -6.45525391 13.76509766 -6.4375 12.4375 C-6.44910156 11.56996094 -6.46070313 10.70242188 -6.47265625 9.80859375 C-6.46685547 8.55755859 -6.46685547 8.55755859 -6.4609375 7.28125 C-6.45755371 6.52005859 -6.45416992 5.75886719 -6.45068359 4.97460938 C-5.6926108 0.99639592 -3.91972004 -0.07999429 0 0 Z " fill="#F1F5F8" transform="translate(745.0625,338.0625)"/>
<path d="M0 0 C10.05859375 -0.09765625 10.05859375 -0.09765625 13 0 C14 1 14 1 14.09765625 3.94140625 C14.08605469 5.13636719 14.07445312 6.33132813 14.0625 7.5625 C14.05347656 8.76003906 14.04445313 9.95757812 14.03515625 11.19140625 C14.02355469 12.11824219 14.01195312 13.04507812 14 14 C11.23547967 15.38226016 8.9538637 15.09525387 5.875 15.0625 C3.93625 15.041875 1.9975 15.02125 0 15 C0 10.05 0 5.1 0 0 Z " fill="#E1E8EF" transform="translate(477,395)"/>
<path d="M0 0 C2.60444348 -0.05394705 5.20776998 -0.09364469 7.8125 -0.125 C8.55048828 -0.14175781 9.28847656 -0.15851563 10.04882812 -0.17578125 C13.91246426 -0.21074628 15.70903668 -0.19397555 19 2 C19.3125 5.5 19.3125 5.5 19 9 C17 11 17 11 13.0859375 11.1953125 C11.51550649 11.18200376 9.94513779 11.15813602 8.375 11.125 C7.57320313 11.11597656 6.77140625 11.10695313 5.9453125 11.09765625 C3.96341477 11.07406223 1.98167019 11.03819065 0 11 C0 7.37 0 3.74 0 0 Z " fill="#21598A" transform="translate(359,354)"/>
<path d="M0 0 C11.25 -0.40178571 11.25 -0.40178571 15 3 C14.67 4.98 14.34 6.96 14 9 C13.34 9 12.68 9 12 9 C12.7425 10.175625 12.7425 10.175625 13.5 11.375 C15 14 15 14 15 16 C12.6875 16.3125 12.6875 16.3125 10 16 C8.3125 13.5625 8.3125 13.5625 7 11 C6.34 10.67 5.68 10.34 5 10 C5 11.98 5 13.96 5 16 C3.35 16 1.7 16 0 16 C0 10.72 0 5.44 0 0 Z " fill="#DFE7EE" transform="translate(162,394)"/>
<path d="M0 0 C9.9609375 -0.1953125 9.9609375 -0.1953125 13 0 C13.66 0.66 14.32 1.32 15 2 C14.63723355 4.82957829 13.90305236 7.29084291 13 10 C13.87914688 12.6569191 13.87914688 12.6569191 15 15 C13.02 15 11.04 15 9 15 C8.34 13.02 7.68 11.04 7 9 C6.34 9 5.68 9 5 9 C5 10.98 5 12.96 5 15 C3.35 15 1.7 15 0 15 C0 10.05 0 5.1 0 0 Z " fill="#E8EEF3" transform="translate(392,395)"/>
<path d="M0 0 C9.9609375 -0.1953125 9.9609375 -0.1953125 13 0 C13.66 0.66 14.32 1.32 15 2 C14.63723355 4.82957829 13.90305236 7.29084291 13 10 C13.87914688 12.6569191 13.87914688 12.6569191 15 15 C13.02 15 11.04 15 9 15 C8.34 13.02 7.68 11.04 7 9 C6.34 9 5.68 9 5 9 C5 10.98 5 12.96 5 15 C3.35 15 1.7 15 0 15 C0 10.05 0 5.1 0 0 Z " fill="#E8EEF3" transform="translate(275,395)"/>
<path d="M0 0 C9.9609375 -0.1953125 9.9609375 -0.1953125 13 0 C13.66 0.66 14.32 1.32 15 2 C14.63723355 4.82957829 13.90305236 7.29084291 13 10 C13.87914688 12.6569191 13.87914688 12.6569191 15 15 C13.02 15 11.04 15 9 15 C8.34 13.02 7.68 11.04 7 9 C6.34 9 5.68 9 5 9 C5 10.98 5 12.96 5 15 C3.35 15 1.7 15 0 15 C0 10.05 0 5.1 0 0 Z " fill="#E8EEF3" transform="translate(97,395)"/>
<path d="M0 0 C2.24940295 -0.08119503 4.49964871 -0.13927819 6.75 -0.1875 C8.00296875 -0.22230469 9.2559375 -0.25710938 10.546875 -0.29296875 C14.14109357 0.01197061 15.44725126 0.54394629 18 3 C17.74438677 5.3431213 17.40729228 7.67843403 17 10 C13.93466836 11.53266582 10.73245728 11.10276471 7.375 11.0625 C6.66859375 11.05798828 5.9621875 11.05347656 5.234375 11.04882812 C3.48954725 11.03703875 1.744763 11.01910324 0 11 C0 7.37 0 3.74 0 0 Z " fill="#175285" transform="translate(92,332)"/>
<path d="M0 0 C9.1796875 -0.1953125 9.1796875 -0.1953125 12 0 C14 2 14 2 14.1875 4.375 C14 7 14 7 13.4375 9.0625 C12.91957523 11.35616685 13.2883622 12.78601575 14 15 C12.35 15 10.7 15 9 15 C8.34 13.35 7.68 11.7 7 10 C6.34 10 5.68 10 5 10 C5 11.65 5 13.3 5 15 C3.35 15 1.7 15 0 15 C0 10.05 0 5.1 0 0 Z " fill="#E8EEF3" transform="translate(448,395)"/>
<path d="M0 0 C5 0 5 0 6.58203125 1.3125 C7.72135417 2.875 8.86067708 4.4375 10 6 C10.33 4.02 10.66 2.04 11 0 C12.32 0 13.64 0 15 0 C15 4.95 15 9.9 15 15 C9.97862202 13.9957244 9.13756581 13.60239038 6 10 C5.67 11.65 5.34 13.3 5 15 C3.35 15 1.7 15 0 15 C0 10.05 0 5.1 0 0 Z " fill="#F6F8FA" transform="translate(201,395)"/>
<path d="M0 0 C5 0 5 0 6.58203125 1.3125 C7.72135417 2.875 8.86067708 4.4375 10 6 C10.33 4.02 10.66 2.04 11 0 C12.32 0 13.64 0 15 0 C15 4.95 15 9.9 15 15 C10 15 10 15 8.41796875 13.6875 C7.27864583 12.125 6.13932292 10.5625 5 9 C4.67 10.98 4.34 12.96 4 15 C2.68 15 1.36 15 0 15 C0 10.05 0 5.1 0 0 Z " fill="#FBFCFD" transform="translate(545,395)"/>
<path d="M0 0 C2.62527189 -0.05382106 5.24944713 -0.09358313 7.875 -0.125 C8.62136719 -0.14175781 9.36773437 -0.15851563 10.13671875 -0.17578125 C12.09194461 -0.1933959 14.04742021 -0.10320189 16 0 C16.66 0.66 17.32 1.32 18 2 C17.42307692 8.57692308 17.42307692 8.57692308 16 10 C13.30345146 10.07319621 10.63308542 10.09242537 7.9375 10.0625 C6.79958008 10.05573242 6.79958008 10.05573242 5.63867188 10.04882812 C3.75908129 10.0370068 1.87953101 10.01907078 0 10 C0 6.7 0 3.4 0 0 Z " fill="#155084" transform="translate(359,332)"/>
<path d="M0 0 C1.65 0 3.3 0 5 0 C5.33 3.63 5.66 7.26 6 11 C7.32 11 8.64 11 10 11 C10.33 7.37 10.66 3.74 11 0 C12.65 0 14.3 0 16 0 C16.10841951 1.91541138 16.18578079 3.83259773 16.25 5.75 C16.29640625 6.81734375 16.3428125 7.8846875 16.390625 8.984375 C16 12 16 12 14.234375 14.359375 C11.87710195 16.09023982 10.87529794 16.54492653 8 16.5 C7.34 16.5103125 6.68 16.520625 6 16.53125 C3.01825014 15.73922269 1.83588941 14.45326814 0 12 C-0.390625 8.984375 -0.390625 8.984375 -0.25 5.75 C-0.21390625 4.67234375 -0.1778125 3.5946875 -0.140625 2.484375 C-0.09421875 1.66453125 -0.0478125 0.8446875 0 0 Z " fill="#E6ECF2" transform="translate(495,394)"/>
<path d="M0 0 C4.29 0 8.58 0 13 0 C12.67 2.97 12.34 5.94 12 9 C9.69 9 7.38 9 5 9 C5 9.66 5 10.32 5 11 C7.64 11 10.28 11 13 11 C13 12.32 13 13.64 13 15 C8.71 15 4.42 15 0 15 C0 10.05 0 5.1 0 0 Z " fill="#ECF1F5" transform="translate(566,395)"/>
<path d="M0 0 C4.29 0 8.58 0 13 0 C12.67 2.97 12.34 5.94 12 9 C9.69 9 7.38 9 5 9 C5 9.66 5 10.32 5 11 C7.64 11 10.28 11 13 11 C13 12.32 13 13.64 13 15 C8.71 15 4.42 15 0 15 C0 10.05 0 5.1 0 0 Z " fill="#ECF1F5" transform="translate(430,395)"/>
<path d="M0 0 C4.29 0 8.58 0 13 0 C12.67 2.97 12.34 5.94 12 9 C9.69 9 7.38 9 5 9 C5 9.66 5 10.32 5 11 C7.64 11 10.28 11 13 11 C13 12.32 13 13.64 13 15 C8.71 15 4.42 15 0 15 C0 10.05 0 5.1 0 0 Z " fill="#ECF1F5" transform="translate(117,395)"/>
<path d="M0 0 C1.65 0 3.3 0 5 0 C5 3.96 5 7.92 5 12 C6.32 11.67 7.64 11.34 9 11 C9.33 7.7 9.66 4.4 10 1 C11.65 1 13.3 1 15 1 C15.08107583 2.93681161 15.13922475 4.8745934 15.1875 6.8125 C15.22230469 7.89144531 15.25710937 8.97039062 15.29296875 10.08203125 C15 13 15 13 13.76953125 14.86328125 C11.54164299 16.29444126 10.1362878 16.40136288 7.5 16.375 C6.7265625 16.38273437 5.953125 16.39046875 5.15625 16.3984375 C3 16 3 16 1.23046875 14.89453125 C-0.61792184 12.04859653 -0.28694821 9.66058962 -0.1875 6.3125 C-0.16042969 5.13300781 -0.13335937 3.95351563 -0.10546875 2.73828125 C-0.07066406 1.83464844 -0.03585938 0.93101562 0 0 Z " fill="#EDF2F5" transform="translate(77,394)"/>
<path d="M0 0 C1.98 0 3.96 0 6 0 C6.83986084 1.93467942 7.67168027 3.87285129 8.5 5.8125 C8.9640625 6.89144531 9.428125 7.97039062 9.90625 9.08203125 C11 12 11 12 11 15 C9.35 15 7.7 15 6 15 C6 14.34 6 13.68 6 13 C4.02 13 2.04 13 0 13 C0 13.66 0 14.32 0 15 C-1.65 15 -3.3 15 -5 15 C-3.97137215 9.55432314 -2.75385216 4.88182883 0 0 Z " fill="#E8EEF3" transform="translate(377,395)"/>
<path d="M0 0 C1.98 0 3.96 0 6 0 C6.83986084 1.93467942 7.67168027 3.87285129 8.5 5.8125 C8.9640625 6.89144531 9.428125 7.97039062 9.90625 9.08203125 C11 12 11 12 11 15 C9.35 15 7.7 15 6 15 C6 14.34 6 13.68 6 13 C4.02 13 2.04 13 0 13 C0 13.66 0 14.32 0 15 C-1.65 15 -3.3 15 -5 15 C-3.97137215 9.55432314 -2.75385216 4.88182883 0 0 Z " fill="#E8EEF3" transform="translate(186,395)"/>
<path d="M0 0 C2.375 1.375 2.375 1.375 4 3 C4 3.66 4 4.32 4 5 C1.36 4.67 -1.28 4.34 -4 4 C-4 4.66 -4 5.32 -4 6 C-2.865625 6.144375 -1.73125 6.28875 -0.5625 6.4375 C3 7 3 7 4 8 C4.1875 10.9375 4.1875 10.9375 4 14 C1.58513057 16.41486943 0.87292211 16.2961925 -2.4375 16.3125 C-3.61119141 16.33763672 -3.61119141 16.33763672 -4.80859375 16.36328125 C-7.49050614 15.91868615 -8.37747608 15.1442358 -10 13 C-10 12.34 -10 11.68 -10 11 C-6.37471432 10.79859524 -4.13498292 11.14223235 -1 13 C-1 12.34 -1 11.68 -1 11 C-2.11375 10.71125 -3.2275 10.4225 -4.375 10.125 C-8 9 -8 9 -10 7 C-9.8125 4.5 -9.8125 4.5 -9 2 C-5.51131349 -0.32579101 -4.10281481 -0.41865457 0 0 Z " fill="#EEF2F6" transform="translate(611,394)"/>
<path d="M0 0 C2.375 1.375 2.375 1.375 4 3 C4 3.66 4 4.32 4 5 C1.36 4.67 -1.28 4.34 -4 4 C-4 4.66 -4 5.32 -4 6 C-2.865625 6.144375 -1.73125 6.28875 -0.5625 6.4375 C3 7 3 7 4 8 C4.1875 10.9375 4.1875 10.9375 4 14 C1.58513057 16.41486943 0.87292211 16.2961925 -2.4375 16.3125 C-3.61119141 16.33763672 -3.61119141 16.33763672 -4.80859375 16.36328125 C-7.49050614 15.91868615 -8.37747608 15.1442358 -10 13 C-10 12.34 -10 11.68 -10 11 C-6.37471432 10.79859524 -4.13498292 11.14223235 -1 13 C-1 12.34 -1 11.68 -1 11 C-2.11375 10.71125 -3.2275 10.4225 -4.375 10.125 C-8 9 -8 9 -10 7 C-9.8125 4.5 -9.8125 4.5 -9 2 C-5.51131349 -0.32579101 -4.10281481 -0.41865457 0 0 Z " fill="#EEF2F6" transform="translate(231,394)"/>
<path d="M0 0 C4.29 0 8.58 0 13 0 C13 0.99 13 1.98 13 3 C10.36 3 7.72 3 5 3 C5 3.66 5 4.32 5 5 C7.31 5 9.62 5 12 5 C12 6.32 12 7.64 12 9 C9.69 9 7.38 9 5 9 C5 9.66 5 10.32 5 11 C7.97 11 10.94 11 14 11 C14 12.32 14 13.64 14 15 C9.38 15 4.76 15 0 15 C0 10.05 0 5.1 0 0 Z " fill="#F2F5F8" transform="translate(39,395)"/>
<path d="M0 0 C2.375 1.375 2.375 1.375 4 3 C4 3.66 4 4.32 4 5 C1.36 4.67 -1.28 4.34 -4 4 C-4 4.66 -4 5.32 -4 6 C-2.865625 6.144375 -1.73125 6.28875 -0.5625 6.4375 C3 7 3 7 4 8 C4.1875 10.9375 4.1875 10.9375 4 14 C1.58513057 16.41486943 0.87292211 16.2961925 -2.4375 16.3125 C-3.61119141 16.33763672 -3.61119141 16.33763672 -4.80859375 16.36328125 C-7.49050614 15.91868615 -8.37747608 15.1442358 -10 13 C-10 12.34 -10 11.68 -10 11 C-6.37471432 10.79859524 -4.13498292 11.14223235 -1 13 C-1 12.34 -1 11.68 -1 11 C-2.11375 10.71125 -3.2275 10.4225 -4.375 10.125 C-8 9 -8 9 -10 7 C-9.8125 4.5 -9.8125 4.5 -9 2 C-5.51131349 -0.32579101 -4.10281481 -0.41865457 0 0 Z " fill="#EEF2F6" transform="translate(30,394)"/>
<path d="M0 0 C0.99 0.66 1.98 1.32 3 2 C3 2.99 3 3.98 3 5 C0.69 4.67 -1.62 4.34 -4 4 C-4 4.66 -4 5.32 -4 6 C-2.2984375 6.4640625 -2.2984375 6.4640625 -0.5625 6.9375 C3 8 3 8 4 9 C4.1875 11.4375 4.1875 11.4375 4 14 C2 16 2 16 -0.3125 16.265625 C-1.199375 16.26046875 -2.08625 16.2553125 -3 16.25 C-4.3303125 16.25773437 -4.3303125 16.25773437 -5.6875 16.265625 C-8 16 -8 16 -10 14 C-10 13.01 -10 12.02 -10 11 C-8.35 11 -6.7 11 -5 11 C-5 11.66 -5 12.32 -5 13 C-3.68 13 -2.36 13 -1 13 C-1.87849194 10.65752556 -1.87849194 10.65752556 -4.9375 10 C-5.948125 9.67 -6.95875 9.34 -8 9 C-8.66 8.34 -9.32 7.68 -10 7 C-9.8125 4.5 -9.8125 4.5 -9 2 C-5.53001271 -0.31332486 -4.07490752 -0.33957563 0 0 Z " fill="#EFF3F6" transform="translate(593,394)"/>
<path d="M0 0 C0.99 0.66 1.98 1.32 3 2 C3 2.99 3 3.98 3 5 C0.69 4.67 -1.62 4.34 -4 4 C-4 4.66 -4 5.32 -4 6 C-2.2984375 6.4640625 -2.2984375 6.4640625 -0.5625 6.9375 C3 8 3 8 4 9 C4.1875 11.4375 4.1875 11.4375 4 14 C2 16 2 16 -0.3125 16.265625 C-1.199375 16.26046875 -2.08625 16.2553125 -3 16.25 C-4.3303125 16.25773437 -4.3303125 16.25773437 -5.6875 16.265625 C-8 16 -8 16 -10 14 C-10 13.01 -10 12.02 -10 11 C-8.35 11 -6.7 11 -5 11 C-5 11.66 -5 12.32 -5 13 C-3.68 13 -2.36 13 -1 13 C-1.87849194 10.65752556 -1.87849194 10.65752556 -4.9375 10 C-5.948125 9.67 -6.95875 9.34 -8 9 C-8.66 8.34 -9.32 7.68 -10 7 C-9.8125 4.5 -9.8125 4.5 -9 2 C-5.53001271 -0.31332486 -4.07490752 -0.33957563 0 0 Z " fill="#EFF3F6" transform="translate(341,394)"/>
<path d="M0 0 C0.99 0.66 1.98 1.32 3 2 C3 2.99 3 3.98 3 5 C0.69 5 -1.62 5 -4 5 C-2.865625 5.474375 -1.73125 5.94875 -0.5625 6.4375 C3 8 3 8 4 9 C4.25 11.4375 4.25 11.4375 4 14 C0.86588698 16.08940868 0.02549528 16.27364412 -3.5625 16.25 C-4.74005859 16.25773437 -4.74005859 16.25773437 -5.94140625 16.265625 C-8 16 -8 16 -10 14 C-10 13.01 -10 12.02 -10 11 C-6.97580475 11.58803797 -3.98241547 12.22678118 -1 13 C-1.33 12.34 -1.66 11.68 -2 11 C-4.32206525 10.29508733 -6.65593068 9.62787571 -9 9 C-10 8 -10 8 -10.3125 5.625 C-10 3 -10 3 -8.375 1.1875 C-5.35793388 -0.32103306 -3.33598971 -0.35489252 0 0 Z " fill="#F0F4F7" transform="translate(304,394)"/>
<path d="M0 0 C4.29 0 8.58 0 13 0 C13 0.99 13 1.98 13 3 C10.36 3 7.72 3 5 3 C5 3.66 5 4.32 5 5 C7.31 5 9.62 5 12 5 C12 6.32 12 7.64 12 9 C9.69 9 7.38 9 5 9 C5 9.66 5 10.32 5 11 C7.64 11 10.28 11 13 11 C13 12.32 13 13.64 13 15 C8.71 15 4.42 15 0 15 C0 10.05 0 5.1 0 0 Z " fill="#F5F8FA" transform="translate(257,395)"/>
<path d="M0 0 C1.4375 2.0625 1.4375 2.0625 2 4 C-0.64 3.67 -3.28 3.34 -6 3 C-6 3.66 -6 4.32 -6 5 C-4.88625 5.12375 -3.7725 5.2475 -2.625 5.375 C1 6 1 6 3 8 C2.67028521 11.29714793 2.3773161 12.6226839 0 15 C-2.09375 15.265625 -2.09375 15.265625 -4.5 15.25 C-5.2940625 15.25515625 -6.088125 15.2603125 -6.90625 15.265625 C-9 15 -9 15 -11 13 C-11 12.01 -11 11.02 -11 10 C-7.97580475 10.58803797 -4.98241547 11.22678118 -2 12 C-2 11.34 -2 10.68 -2 10 C-2.928125 9.87625 -3.85625 9.7525 -4.8125 9.625 C-8 9 -8 9 -11 7 C-11.4375 4.5625 -11.4375 4.5625 -11 2 C-7.77249703 -1.87300356 -4.58344705 -1.27317974 0 0 Z " fill="#F2F5F8" transform="translate(527,395)"/>
<path d="M0 0 C2.875 1.8125 2.875 1.8125 5 4 C5 4.99 5 5.98 5 7 C3.35 7 1.7 7 0 7 C-0.33 6.34 -0.66 5.68 -1 5 C-1.99 5 -2.98 5 -4 5 C-4.33 7.31 -4.66 9.62 -5 12 C-3.35 12 -1.7 12 0 12 C0 11.34 0 10.68 0 10 C1.65 10 3.3 10 5 10 C4.42655063 12.86724686 4.1385485 13.8614515 2 16 C-0.05859375 16.30078125 -0.05859375 16.30078125 -2.4375 16.3125 C-3.61119141 16.33763672 -3.61119141 16.33763672 -4.80859375 16.36328125 C-7 16 -7 16 -8.7578125 14.7578125 C-11.06522977 11.49259939 -10.6132551 7.81734071 -10 4 C-7.34545768 -0.18600905 -4.80463883 -0.78443083 0 0 Z " fill="#EDF1F5" transform="translate(67,394)"/>
<path d="M0 0 C1.71337661 3.21836957 2.95044241 6.48778086 4.125 9.9375 C4.47820312 10.95714844 4.83140625 11.97679687 5.1953125 13.02734375 C6 16 6 16 6 21 C2.04 21 -1.92 21 -6 21 C-5.43586308 14.93552809 -4.35874294 4.35874294 0 0 Z " fill="#1D5788" transform="translate(434,336)"/>
<path d="M0 0 C4.95 0 9.9 0 15 0 C15 1.65 15 3.3 15 5 C13.35 5 11.7 5 10 5 C10 8.63 10 12.26 10 16 C8.35 16 6.7 16 5 16 C5 12.37 5 8.74 5 5 C3.35 5 1.7 5 0 5 C0 3.35 0 1.7 0 0 Z " fill="#E0E8EF" transform="translate(410,394)"/>
<path d="M0 0 C4.95 0 9.9 0 15 0 C15 1.65 15 3.3 15 5 C13.35 5 11.7 5 10 5 C10 8.63 10 12.26 10 16 C8.35 16 6.7 16 5 16 C5 12.37 5 8.74 5 5 C3.35 5 1.7 5 0 5 C0 3.35 0 1.7 0 0 Z " fill="#E0E8EF" transform="translate(143,394)"/>
<path d="M0 0 C3.96 0 7.92 0 12 0 C12 0.99 12 1.98 12 3 C9.69 3 7.38 3 5 3 C5 3.99 5 4.98 5 6 C6.98 6 8.96 6 11 6 C11 7.32 11 8.64 11 10 C9.02 10 7.04 10 5 10 C5 11.65 5 13.3 5 15 C3.35 15 1.7 15 0 15 C0 10.05 0 5.1 0 0 Z " fill="#F7F9FB" transform="translate(240,395)"/>
<path d="M0 0 C3.0625 0.3125 3.0625 0.3125 4.9375 1.5 C6.46909584 3.96757108 6.49072025 5.45769831 6.0625 8.3125 C4.9375 10.125 4.9375 10.125 3.0625 11.3125 C0 11.625 0 11.625 -2.9375 11.3125 C-4.9375 9.3125 -4.9375 9.3125 -5.1875 5.8125 C-4.87458101 1.43163414 -4.40975115 0.46912246 0 0 Z " fill="#F0F4F7" transform="translate(706.9375,351.6875)"/>
<path d="M0 0 C1.65 0 3.3 0 5 0 C5 5.28 5 10.56 5 16 C3.35 16 1.7 16 0 16 C0 10.72 0 5.44 0 0 Z " fill="#E6EDF2" transform="translate(534,394)"/>
<path d="M0 0 C1.81883009 2.3832946 3 3.95818337 3 7 C-0.63 7.66 -4.26 8.32 -8 9 C-8.36190476 3.57142857 -8.36190476 3.57142857 -6.8125 1.125 C-4.29257359 -0.43909226 -2.90716706 -0.58143341 0 0 Z " fill="#F4F6F9" transform="translate(710,338)"/>
<path d="M0 0 C1.65 0 3.3 0 5 0 C5 1.65 5 3.3 5 5 C3.35 5 1.7 5 0 5 C0 3.35 0 1.7 0 0 Z " fill="#D9E3EB" transform="translate(312,405)"/>
<path d="M0 0 C1.32 0 2.64 0 4 0 C4 1.65 4 3.3 4 5 C2.35 5 0.7 5 -1 5 C-0.67 3.35 -0.34 1.7 0 0 Z " fill="#D5DFE9" transform="translate(620,405)"/>
<path d="M0 0 C0 0.66 0 1.32 0 2 C-3.02419525 1.41196203 -6.01758453 0.77321882 -9 0 C-9.33 0.66 -9.66 1.32 -10 2 C-10 1.01 -10 0.02 -10 -1 C-6.06329512 -2.31223496 -3.87511856 -1.24296256 0 0 Z " fill="#537FA5" transform="translate(525,405)"/>
<path d="M0 0 C0 0.66 0 1.32 0 2 C-3.34373475 1.44271087 -6.03312999 0.64826111 -9 -1 C-5.79937313 -2.60031344 -3.27728194 -1.03173691 0 0 Z " fill="#5480A5" transform="translate(303,405)"/>
<path d="M0 0 C2.31 0.66 4.62 1.32 7 2 C7 2.66 7 3.32 7 4 C5.68 4 4.36 4 3 4 C3 3.34 3 2.68 3 2 C1.35 2 -0.3 2 -2 2 C-1.34 1.34 -0.68 0.68 0 0 Z " fill="#4B79A0" transform="translate(585,403)"/>
<path d="M0 0 C2.31 0.66 4.62 1.32 7 2 C7 2.66 7 3.32 7 4 C5.68 4 4.36 4 3 4 C3 3.34 3 2.68 3 2 C1.35 2 -0.3 2 -2 2 C-1.34 1.34 -0.68 0.68 0 0 Z " fill="#4B79A0" transform="translate(333,403)"/>
</svg>
