<?xml version="1.0" encoding="UTF-8"?>
<svg version="1.1" xmlns="http://www.w3.org/2000/svg" width="192" height="192">
<path d="M0 0 C63.36 0 126.72 0 192 0 C192 63.36 192 126.72 192 192 C128.64 192 65.28 192 0 192 C0 128.64 0 65.28 0 0 Z " fill="#FDFDFD" transform="translate(0,0)"/>
<path d="M0 0 C0.75594955 0.25686584 1.51189911 0.51373169 2.29075623 0.77838135 C4.69608245 1.59750691 7.09619348 2.4307509 9.49609375 3.265625 C12.64152309 4.34876803 15.78900184 5.42581281 18.9375 6.5 C19.69858063 6.76051147 20.45966125 7.02102295 21.24380493 7.28942871 C28.0763248 9.60807538 34.97071637 11.62581178 41.93359375 13.515625 C42.03593308 20.25580715 42.1054488 26.99578524 42.15332031 33.73657227 C42.17330001 36.02440885 42.20049326 38.31219526 42.23535156 40.59985352 C42.59711497 64.97100304 42.59711497 64.97100304 37.93359375 75.515625 C37.25031006 77.10383057 37.25031006 77.10383057 36.55322266 78.72412109 C28.6159721 96.43394461 13.16052718 108.61251087 -4.75390625 115.453125 C-13.52475846 118.04099129 -21.23500017 114.42161165 -29.06640625 110.515625 C-41.62081339 103.36438043 -51.04876098 94.14363373 -58.06640625 81.515625 C-58.46601562 80.82339844 -58.865625 80.13117188 -59.27734375 79.41796875 C-66.29761502 65.72052217 -65.46364193 48.88129284 -65.25390625 33.953125 C-65.23880975 32.05534934 -65.22513026 30.15756186 -65.21289062 28.25976562 C-65.18032979 23.67808528 -65.12883141 19.09699172 -65.06640625 14.515625 C-64.52919449 14.31682739 -63.99198273 14.11802979 -63.43849182 13.91320801 C-62.72732712 13.64858765 -62.01616241 13.38396729 -61.28344727 13.11132812 C-60.5812355 12.85065552 -59.87902374 12.58998291 -59.15553284 12.32141113 C-57.27931008 11.59774303 -55.43375843 10.7957173 -53.59375 9.984375 C-49.6623038 8.34736086 -45.72469079 7.15846317 -41.62890625 6.015625 C-36.61499575 4.60900758 -31.72602389 3.07057326 -26.86352539 1.20263672 C-24.59830882 0.33667837 -22.31650824 -0.44218923 -20.00390625 -1.171875 C-18.84181641 -1.54892578 -18.84181641 -1.54892578 -17.65625 -1.93359375 C-11.21277028 -3.30392654 -6.0323241 -2.13130353 0 0 Z " fill="#203D8B" transform="translate(107.06640625,44.484375)"/>
<path d="M0 0 C0.99 0.99 0.99 0.99 2 2 C1.44444444 6.55555556 1.44444444 6.55555556 0 8 C-2.039781 8.13618716 -4.08224263 8.23252628 -6.125 8.3125 C-26.1854941 9.65938974 -41.91522163 18.17228601 -55.796875 32.41796875 C-67.53114777 46.17036999 -72.37196399 61.65776791 -72.3125 79.4375 C-72.32861328 80.39720703 -72.34472656 81.35691406 -72.36132812 82.34570312 C-72.37344947 100.34589704 -64.03810871 117.66528696 -51.875 130.6875 C-37.87326464 143.98793946 -21.27796003 150.37303401 -2.125 150.3125 C-1.11308594 150.32861328 -0.10117188 150.34472656 0.94140625 150.36132812 C19.10736253 150.37295806 36.61018645 142.26782606 49.6875 129.875 C63.94395641 114.92805995 69.53838046 97.13506918 71 77 C73.375 76.375 73.375 76.375 76 76 C78.44475164 78.44475164 78.32294485 79.12682619 78.375 82.5 C78.1399658 94.3927303 75.23754908 106.83574871 69 117 C68.22849609 118.33224609 68.22849609 118.33224609 67.44140625 119.69140625 C56.42886482 137.97782032 39.03088553 151.58028071 18.27539062 156.97509766 C-2.71156583 161.81650929 -23.80802657 159.02023422 -42.375 147.99609375 C-62.40786413 134.79046752 -75.41336701 115.79627214 -80.27734375 92.34375 C-83.78820576 73.12999241 -79.05264841 53.30497599 -68.953125 36.81640625 C-65.71082897 32.14101538 -61.95450828 28.07563736 -58 24 C-57.45988281 23.38640625 -56.91976562 22.7728125 -56.36328125 22.140625 C-43.28058016 7.77272153 -19.44173591 -2.77224753 0 0 Z " fill="#2E4272" transform="translate(97,15)"/>
<path d="M0 0 C4.70588235 0.70588235 4.70588235 0.70588235 6 2 C7.64064922 14.88313075 3.72595754 30.03987421 -3 41 C-3.51433594 41.88816406 -4.02867187 42.77632812 -4.55859375 43.69140625 C-13.36240778 58.31021061 -26.56854108 71.30838019 -43 77 C-45.34375 76.6484375 -45.34375 76.6484375 -47 76 C-47.103125 75.360625 -47.20625 74.72125 -47.3125 74.0625 C-47.539375 73.381875 -47.76625 72.70125 -48 72 C-48.99 71.67 -49.98 71.34 -51 71 C-50.26136719 70.72027344 -49.52273437 70.44054687 -48.76171875 70.15234375 C-30.44681868 62.91481653 -16.35811521 51.27127512 -8.11279297 33.03808594 C-4.11171358 23.59328446 -2.16233628 14.41706134 -1.32421875 4.21875 C-1 1 -1 1 0 0 Z " fill="#2C59D6" transform="translate(169,91)"/>
<path d="M0 0 C2.32741756 0.85689802 4.40630636 1.89768316 6.57714844 3.09863281 C7.43050781 3.56914063 8.28386719 4.03964844 9.16308594 4.52441406 C10.04738281 5.018125 10.93167969 5.51183594 11.84277344 6.02050781 C12.71160156 6.49875 13.58042969 6.97699219 14.47558594 7.46972656 C25.98679252 13.84755724 25.98679252 13.84755724 30.09277344 16.77050781 C30.09277344 17.10050781 30.09277344 17.43050781 30.09277344 17.77050781 C9.96277344 17.77050781 -10.16722656 17.77050781 -30.90722656 17.77050781 C-28.16089629 15.02417754 -26.03463084 13.56381794 -22.68847656 11.70410156 C-21.67398438 11.13626953 -20.65949219 10.5684375 -19.61425781 9.98339844 C-18.5559375 9.39751953 -17.49761719 8.81164062 -16.40722656 8.20800781 C-14.31295237 7.04097926 -12.21917955 5.87305037 -10.12597656 4.70410156 C-8.73282227 3.93151001 -8.73282227 3.93151001 -7.31152344 3.14331055 C-1.49197901 -0.1795264 -1.49197901 -0.1795264 0 0 Z " fill="#EFF0F5" transform="translate(95.9072265625,68.2294921875)"/>
<path d="M0 0 C17.82 0 35.64 0 54 0 C54 1.65 54 3.3 54 5 C36.18 5 18.36 5 0 5 C0 3.35 0 1.7 0 0 Z " fill="#DEE1EA" transform="translate(69,112)"/>
<path d="M0 0 C2.31 0 4.62 0 7 0 C7 5.94 7 11.88 7 18 C4.69 18 2.38 18 0 18 C0 12.06 0 6.12 0 0 Z " fill="#DDE1EB" transform="translate(113,90)"/>
<path d="M0 0 C2.31 0 4.62 0 7 0 C7 5.94 7 11.88 7 18 C4.69 18 2.38 18 0 18 C0 12.06 0 6.12 0 0 Z " fill="#E1E4ED" transform="translate(100,90)"/>
<path d="M0 0 C2.31 0 4.62 0 7 0 C7 5.94 7 11.88 7 18 C4.69 18 2.38 18 0 18 C0 12.06 0 6.12 0 0 Z " fill="#DEE1EA" transform="translate(73,90)"/>
<path d="M0 0 C1.98 0 3.96 0 6 0 C6 5.94 6 11.88 6 18 C4.02 18 2.04 18 0 18 C0 12.06 0 6.12 0 0 Z " fill="#F0F2F5" transform="translate(87,90)"/>
<path d="M0 0 C0.66 0 1.32 0 2 0 C1.67 0.99 1.34 1.98 1 3 C0.84565842 5.94717173 0.7424397 8.87498865 0.68359375 11.82421875 C0.66281265 12.68561966 0.64203156 13.54702057 0.62062073 14.43452454 C0.55525091 17.18543544 0.49629868 19.93644156 0.4375 22.6875 C0.39430283 24.55274421 0.35068815 26.4179788 0.30664062 28.28320312 C0.19958237 32.85537124 0.09827946 37.4276351 0 42 C-0.33 42 -0.66 42 -1 42 C-1.02464638 36.17928378 -1.0428343 30.35859766 -1.05493164 24.5378418 C-1.05997267 22.55606559 -1.06680538 20.57429311 -1.07543945 18.5925293 C-1.08751515 15.75047891 -1.09323045 12.90847753 -1.09765625 10.06640625 C-1.10281754 9.17474258 -1.10797882 8.28307892 -1.11329651 7.36439514 C-1.11349177 5.24259399 -1.0621003 3.1208922 -1 1 C-0.67 0.67 -0.34 0.34 0 0 Z " fill="#596DA2" transform="translate(43,58)"/>
</svg>
